<mxfile host="app.diagrams.net" modified="2024-06-04T17:21:33.925Z" agent="Mozilla/5.0 (Windows NT 10.0; Win64; x64) AppleWebKit/537.36 (KHTML, like Gecko) Chrome/125.0.0.0 Safari/537.36" version="24.4.13" etag="Ic1tM9CMSWcc1BFgtQHh" type="github">
  <diagram name="PÃ¡gina-1" id="eA8a-B17MUbMRyTEJY1M">
    <mxGraphModel>
      <root>
        <mxCell id="0" />
        <mxCell id="1" parent="0" />
      </root>
    </mxGraphModel>
  </diagram>
</mxfile>
